<svg width="1931" height="1284" viewBox="0 0 1931 1284" fill="none" xmlns="http://www.w3.org/2000/svg">
    <path d="M149.198 78.1729H590.472V264.951H357.823L149.198 78.1729Z" fill="#D34848"/>
    <rect width="538.706" height="178.28" transform="matrix(0.00144346 -0.999999 0.999999 0.00158437 412.192 849.13)" fill="#D34848"/>
    <rect width="774.793" height="178.279" transform="matrix(0.00144346 -0.999999 0.999999 0.00158437 881.27 848.436)" fill="#D34848"/>
    <rect width="972.65" height="186.778" transform="matrix(0.999977 0.00674644 -0.00614647 0.999981 887.488 72.8741)" fill="#D34848"/>
    <rect width="622.064" height="186.778" transform="matrix(0.999977 0.00674644 -0.00614647 0.999981 1160.98 332.217)" fill="#D34848"/>
    <rect width="521.959" height="178.28" transform="matrix(0.0037988 -0.999993 0.999991 0.00416961 1139.01 854.686)" fill="#D34848"/>
    <rect width="494.827" height="186.778" transform="matrix(1 -0.000501725 0.000457104 1 412.192 310.238)" fill="#D34848"/>
    <path d="M1854.87 1128.42L1860.21 235.632L1678.4 234.484L1674.34 914.022L1854.87 1128.42Z" fill="#D34848"/>
</svg>



